<svg width="28" height="28" viewBox="0 0 28 28" fill="currentColor" xmlns="http://www.w3.org/2000/svg">
<g clip-path="url(#clip0_350_1229)">
<path d="M23.3333 4.66667H17.5C17.5 3.42899 17.0083 2.242 16.1332 1.36683C15.258 0.491665 14.071 0 12.8333 0L4.66667 0C3.42899 0 2.242 0.491665 1.36683 1.36683C0.491665 2.242 0 3.42899 0 4.66667L0 26.8333C0 27.1428 0.122916 27.4395 0.341709 27.6583C0.560501 27.8771 0.857247 28 1.16667 28C1.47609 28 1.77283 27.8771 1.99162 27.6583C2.21042 27.4395 2.33333 27.1428 2.33333 26.8333V15.1667H11.6667C11.6667 16.4043 12.1583 17.5913 13.0335 18.4665C13.9087 19.3417 15.0957 19.8333 16.3333 19.8333H23.3333C24.571 19.8333 25.758 19.3417 26.6332 18.4665C27.5083 17.5913 28 16.4043 28 15.1667V9.33333C28 8.09566 27.5083 6.90867 26.6332 6.0335C25.758 5.15833 24.571 4.66667 23.3333 4.66667ZM2.33333 12.8333V4.66667C2.33333 4.04783 2.57917 3.45434 3.01675 3.01675C3.45434 2.57917 4.04783 2.33333 4.66667 2.33333H12.8333C13.4522 2.33333 14.0457 2.57917 14.4832 3.01675C14.9208 3.45434 15.1667 4.04783 15.1667 4.66667V10.5C15.1667 11.1188 14.9208 11.7123 14.4832 12.1499C14.0457 12.5875 13.4522 12.8333 12.8333 12.8333H2.33333ZM25.6667 15.1667C25.6667 15.7855 25.4208 16.379 24.9832 16.8166C24.5457 17.2542 23.9522 17.5 23.3333 17.5H16.3333C15.7145 17.5 15.121 17.2542 14.6834 16.8166C14.2458 16.379 14 15.7855 14 15.1667V15.001C14.9988 14.7431 15.8841 14.1615 16.5173 13.3472C17.1506 12.5328 17.4961 11.5316 17.5 10.5V7H23.3333C23.9522 7 24.5457 7.24583 24.9832 7.68342C25.4208 8.121 25.6667 8.71449 25.6667 9.33333V15.1667Z" />
</g>
<defs>
<clipPath id="clip0_350_1229">
<rect width="28" height="28" fill="white"/>
</clipPath>
</defs>
</svg>
