<svg width="29" height="28" viewBox="0 0 29 28" fill="none" xmlns="http://www.w3.org/2000/svg">
<g clip-path="url(#clip0_351_1631)">
<path d="M14.25 0C11.4811 0 8.77431 0.821086 6.47202 2.35943C4.16973 3.89777 2.37532 6.08427 1.31569 8.64243C0.256066 11.2006 -0.0211807 14.0155 0.519012 16.7313C1.05921 19.447 2.39258 21.9416 4.35051 23.8995C6.30845 25.8574 8.80301 27.1908 11.5187 27.731C14.2345 28.2712 17.0494 27.9939 19.6076 26.9343C22.1657 25.8747 24.3522 24.0803 25.8906 21.778C27.4289 19.4757 28.25 16.7689 28.25 14C28.246 10.2882 26.7697 6.72958 24.1451 4.10494C21.5204 1.4803 17.9618 0.0040146 14.25 0V0ZM14.25 25.6667C11.9426 25.6667 9.68693 24.9824 7.76835 23.7005C5.84978 22.4185 4.35443 20.5964 3.47141 18.4646C2.58839 16.3328 2.35735 13.9871 2.80751 11.7239C3.25767 9.46084 4.36881 7.38203 6.00043 5.75042C7.63204 4.11881 9.71084 3.00767 11.974 2.55751C14.2371 2.10734 16.5828 2.33838 18.7146 3.22141C20.8465 4.10443 22.6685 5.59977 23.9505 7.51835C25.2324 9.43692 25.9167 11.6926 25.9167 14C25.9133 17.0932 24.683 20.0586 22.4958 22.2458C20.3086 24.433 17.3432 25.6633 14.25 25.6667Z" fill="#2DDABB"/>
<path d="M11.9843 18.8052C12.2272 18.9058 12.4877 18.9575 12.7506 18.9572C13.0114 18.9582 13.2698 18.9078 13.5111 18.8088C13.7523 18.7098 13.9717 18.5641 14.1566 18.3802L20.9496 11.6732C21.1217 11.4842 21.2149 11.2364 21.21 10.9808C21.2051 10.7252 21.1025 10.4812 20.9233 10.2989C20.7441 10.1166 20.5018 10.0099 20.2463 10.0007C19.9909 9.99141 19.7415 10.0804 19.5496 10.2492L12.7436 16.9492L8.95061 13.2422C8.76098 13.0566 8.50537 12.9539 8.24001 12.9567C7.97464 12.9595 7.72126 13.0676 7.53561 13.2572C7.34996 13.4469 7.24724 13.7025 7.25006 13.9679C7.25287 14.2332 7.36098 14.4866 7.55061 14.6722L11.3346 18.3712C11.5205 18.5572 11.7413 18.7047 11.9843 18.8052Z" fill="#2DDABB"/>
</g>
<defs>
<clipPath id="clip0_351_1631">
<rect width="28" height="28" fill="white" transform="translate(0.25)"/>
</clipPath>
</defs>
</svg>
