<svg width="16" height="16" viewBox="0 0 16 16" fill="currentColor" xmlns="http://www.w3.org/2000/svg">
<g clip-path="url(#clip0_248_52)">
<path d="M8 0C6.41775 0 4.87104 0.469192 3.55544 1.34824C2.23985 2.22729 1.21447 3.47672 0.608967 4.93853C0.00346629 6.40034 -0.15496 8.00887 0.153721 9.56072C0.462403 11.1126 1.22433 12.538 2.34315 13.6569C3.46197 14.7757 4.88743 15.5376 6.43928 15.8463C7.99113 16.155 9.59966 15.9965 11.0615 15.391C12.5233 14.7855 13.7727 13.7602 14.6518 12.4446C15.5308 11.129 16 9.58225 16 8C15.9977 5.87897 15.1541 3.84547 13.6543 2.34568C12.1545 0.845886 10.121 0.00229405 8 0V0ZM8 14.6667C6.68146 14.6667 5.39253 14.2757 4.2962 13.5431C3.19987 12.8106 2.34539 11.7694 1.84081 10.5512C1.33622 9.33305 1.2042 7.99261 1.46144 6.6994C1.71867 5.40619 2.35361 4.21831 3.28596 3.28596C4.21831 2.35361 5.4062 1.71867 6.6994 1.46143C7.99261 1.2042 9.33305 1.33622 10.5512 1.8408C11.7694 2.34539 12.8106 3.19987 13.5431 4.2962C14.2757 5.39253 14.6667 6.68146 14.6667 8C14.6647 9.76752 13.9617 11.4621 12.7119 12.7119C11.4621 13.9617 9.76752 14.6647 8 14.6667Z"/>
<path d="M6.48943 11.2035C6.65141 11.2706 6.82502 11.305 7.00033 11.3049C7.17418 11.3055 7.34647 11.2719 7.50731 11.2059C7.66815 11.1399 7.81439 11.0428 7.93766 10.9202L12.4663 6.44887C12.5811 6.32285 12.6432 6.15767 12.6399 5.98727C12.6367 5.81687 12.5683 5.65419 12.4488 5.53266C12.3293 5.41113 12.1678 5.33997 11.9975 5.33381C11.8272 5.32765 11.6609 5.38695 11.533 5.49954L6.99566 9.9662L4.46699 7.49487C4.34057 7.3711 4.17017 7.30262 3.99326 7.3045C3.81635 7.30638 3.64743 7.37845 3.52366 7.50487C3.39989 7.63129 3.33141 7.8017 3.33329 7.97861C3.33516 8.15552 3.40724 8.32444 3.53366 8.4482L6.05633 10.9142C6.18027 11.0382 6.32744 11.1365 6.48943 11.2035Z"/>
</g>
<defs>
<clipPath id="clip0_248_52">
<rect width="16" height="16" fill="white"/>
</clipPath>
</defs>
</svg>
