<svg width="16" height="16" viewBox="0 0 16 16" fill="none" xmlns="http://www.w3.org/2000/svg">
<g clip-path="url(#clip0_763_3954)">
<path d="M13.9999 2.66666H11.9333C11.7785 1.91427 11.3692 1.23823 10.7741 0.752474C10.1791 0.266722 9.43474 0.000964915 8.66661 -4.76837e-06L7.33327 -4.76837e-06C6.56514 0.000964915 5.82082 0.266722 5.22577 0.752474C4.63073 1.23823 4.22134 1.91427 4.06661 2.66666H1.99994C1.82313 2.66666 1.65356 2.7369 1.52854 2.86192C1.40351 2.98695 1.33327 3.15652 1.33327 3.33333C1.33327 3.51014 1.40351 3.67971 1.52854 3.80473C1.65356 3.92976 1.82313 4 1.99994 4H2.66661V12.6667C2.66767 13.5504 3.0192 14.3976 3.64409 15.0225C4.26898 15.6474 5.11621 15.9989 5.99994 16H9.99994C10.8837 15.9989 11.7309 15.6474 12.3558 15.0225C12.9807 14.3976 13.3322 13.5504 13.3333 12.6667V4H13.9999C14.1768 4 14.3463 3.92976 14.4713 3.80473C14.5964 3.67971 14.6666 3.51014 14.6666 3.33333C14.6666 3.15652 14.5964 2.98695 14.4713 2.86192C14.3463 2.7369 14.1768 2.66666 13.9999 2.66666ZM7.33327 1.33333H8.66661C9.08012 1.33383 9.48336 1.46225 9.82102 1.70096C10.1587 1.93967 10.4142 2.27699 10.5526 2.66666H5.44727C5.58566 2.27699 5.84121 1.93967 6.17887 1.70096C6.51652 1.46225 6.91976 1.33383 7.33327 1.33333ZM11.9999 12.6667C11.9999 13.1971 11.7892 13.7058 11.4142 14.0809C11.0391 14.4559 10.5304 14.6667 9.99994 14.6667H5.99994C5.46951 14.6667 4.9608 14.4559 4.58573 14.0809C4.21065 13.7058 3.99994 13.1971 3.99994 12.6667V4H11.9999V12.6667Z" fill="#F62C2C"/>
<path d="M6.66667 11.9996C6.84348 11.9996 7.01304 11.9293 7.13807 11.8043C7.26309 11.6793 7.33333 11.5097 7.33333 11.3329V7.33292C7.33333 7.1561 7.26309 6.98654 7.13807 6.86151C7.01304 6.73649 6.84348 6.66625 6.66667 6.66625C6.48985 6.66625 6.32029 6.73649 6.19526 6.86151C6.07024 6.98654 6 7.1561 6 7.33292V11.3329C6 11.5097 6.07024 11.6793 6.19526 11.8043C6.32029 11.9293 6.48985 11.9996 6.66667 11.9996Z" fill="#F62C2C"/>
<path d="M9.33324 11.9996C9.51006 11.9996 9.67963 11.9293 9.80465 11.8043C9.92968 11.6793 9.99991 11.5097 9.99991 11.3329V7.33292C9.99991 7.1561 9.92968 6.98654 9.80465 6.86151C9.67963 6.73649 9.51006 6.66625 9.33324 6.66625C9.15643 6.66625 8.98686 6.73649 8.86184 6.86151C8.73681 6.98654 8.66657 7.1561 8.66657 7.33292V11.3329C8.66657 11.5097 8.73681 11.6793 8.86184 11.8043C8.98686 11.9293 9.15643 11.9996 9.33324 11.9996Z" fill="#F62C2C"/>
</g>
<defs>
<clipPath id="clip0_763_3954">
<rect width="16" height="16" fill="white"/>
</clipPath>
</defs>
</svg>
