<svg width="28" height="28" viewBox="0 0 28 28" fill="none" xmlns="http://www.w3.org/2000/svg">
<g clip-path="url(#clip0_687_4769)">
<path d="M14 0C11.2311 0 8.52431 0.821086 6.22202 2.35943C3.91973 3.89777 2.12532 6.08427 1.06569 8.64243C0.006066 11.2006 -0.271181 14.0155 0.269012 16.7313C0.809206 19.447 2.14258 21.9416 4.10051 23.8995C6.05845 25.8574 8.55301 27.1908 11.2687 27.731C13.9845 28.2712 16.7994 27.9939 19.3576 26.9343C21.9157 25.8747 24.1022 24.0803 25.6406 21.778C27.1789 19.4757 28 16.7689 28 14C27.996 10.2882 26.5197 6.72958 23.8951 4.10494C21.2704 1.4803 17.7118 0.0040146 14 0V0ZM14 25.6667C11.6926 25.6667 9.43693 24.9824 7.51835 23.7005C5.59978 22.4185 4.10443 20.5964 3.22141 18.4646C2.33839 16.3328 2.10735 13.9871 2.55751 11.7239C3.00767 9.46084 4.11881 7.38203 5.75043 5.75042C7.38204 4.11881 9.46084 3.00767 11.724 2.55751C13.9871 2.10734 16.3328 2.33838 18.4646 3.22141C20.5965 4.10443 22.4185 5.59977 23.7005 7.51835C24.9824 9.43692 25.6667 11.6926 25.6667 14C25.6633 17.0932 24.433 20.0586 22.2458 22.2458C20.0586 24.433 17.0932 25.6633 14 25.6667V25.6667Z" fill="#F62C2C"/>
<path d="M18.9484 10.463L15.4128 13.9986L18.9484 17.5341C19.1359 17.7217 19.2413 17.976 19.2413 18.2412C19.2413 18.5064 19.1359 18.7608 18.9484 18.9483C18.7608 19.1359 18.5065 19.2412 18.2413 19.2412C17.976 19.2412 17.7217 19.1359 17.5341 18.9483L13.9986 15.4128L10.4631 18.9483C10.2755 19.1359 10.0212 19.2412 9.75598 19.2412C9.49076 19.2412 9.2364 19.1359 9.04887 18.9483C8.86133 18.7608 8.75598 18.5064 8.75598 18.2412C8.75598 17.976 8.86133 17.7217 9.04887 17.5341L12.5844 13.9986L9.04887 10.463C8.86133 10.2755 8.75598 10.0212 8.75598 9.75594C8.75598 9.49072 8.86133 9.23637 9.04887 9.04883C9.2364 8.8613 9.49076 8.75594 9.75597 8.75594C10.0212 8.75594 10.2755 8.8613 10.4631 9.04883L13.9986 12.5844L17.5341 9.04883C17.7217 8.8613 17.976 8.75594 18.2413 8.75594C18.5065 8.75594 18.7608 8.8613 18.9484 9.04883C19.1359 9.23637 19.2413 9.49072 19.2413 9.75594C19.2413 10.0212 19.1359 10.2755 18.9484 10.463Z" fill="#F62C2C"/>
</g>
<defs>
<clipPath id="clip0_687_4769">
<rect width="28" height="28" fill="white"/>
</clipPath>
</defs>
</svg>
