<svg width="28" height="28" viewBox="0 0 28 28" fill="currentColor" xmlns="http://www.w3.org/2000/svg">
<g clip-path="url(#clip0_350_1231)">
<path d="M5.25 20.4171H2.33333C1.71449 20.4171 1.121 20.6629 0.683418 21.1005C0.245833 21.5381 0 22.1315 0 22.7504L0 25.667C0 26.2859 0.245833 26.8794 0.683418 27.317C1.121 27.7545 1.71449 28.0004 2.33333 28.0004H5.25C5.86884 28.0004 6.46233 27.7545 6.89992 27.317C7.3375 26.8794 7.58333 26.2859 7.58333 25.667V22.7504C7.58333 22.1315 7.3375 21.5381 6.89992 21.1005C6.46233 20.6629 5.86884 20.4171 5.25 20.4171ZM5.25 25.667H2.33333V22.7504H5.25V25.667Z"/>
<path d="M25.6667 20.4171H22.7501C22.1312 20.4171 21.5377 20.6629 21.1002 21.1005C20.6626 21.5381 20.4167 22.1315 20.4167 22.7504V25.667C20.4167 26.2859 20.6626 26.8794 21.1002 27.317C21.5377 27.7545 22.1312 28.0004 22.7501 28.0004H25.6667C26.2856 28.0004 26.8791 27.7545 27.3166 27.317C27.7542 26.8794 28.0001 26.2859 28.0001 25.667V22.7504C28.0001 22.1315 27.7542 21.5381 27.3166 21.1005C26.8791 20.6629 26.2856 20.4171 25.6667 20.4171ZM25.6667 25.667H22.7501V22.7504H25.6667V25.667Z"/>
<path d="M5.25 10.208H2.33333C1.71449 10.208 1.121 10.4538 0.683418 10.8914C0.245833 11.329 0 11.9225 0 12.5413L0 15.458C0 16.0768 0.245833 16.6703 0.683418 17.1079C1.121 17.5455 1.71449 17.7913 2.33333 17.7913H5.25C5.86884 17.7913 6.46233 17.5455 6.89992 17.1079C7.3375 16.6703 7.58333 16.0768 7.58333 15.458V12.5413C7.58333 11.9225 7.3375 11.329 6.89992 10.8914C6.46233 10.4538 5.86884 10.208 5.25 10.208ZM5.25 15.458H2.33333V12.5413H5.25V15.458Z"/>
<path d="M25.6667 10.208H22.7501C22.1312 10.208 21.5377 10.4538 21.1002 10.8914C20.6626 11.329 20.4167 11.9225 20.4167 12.5413V15.458C20.4167 16.0768 20.6626 16.6703 21.1002 17.1079C21.5377 17.5455 22.1312 17.7913 22.7501 17.7913H25.6667C26.2856 17.7913 26.8791 17.5455 27.3166 17.1079C27.7542 16.6703 28.0001 16.0768 28.0001 15.458V12.5413C28.0001 11.9225 27.7542 11.329 27.3166 10.8914C26.8791 10.4538 26.2856 10.208 25.6667 10.208ZM25.6667 15.458H22.7501V12.5413H25.6667V15.458Z"/>
<path d="M5.25 0H2.33333C1.71449 0 1.121 0.245833 0.683418 0.683418C0.245833 1.121 0 1.71449 0 2.33333L0 5.25C0 5.86884 0.245833 6.46233 0.683418 6.89992C1.121 7.3375 1.71449 7.58333 2.33333 7.58333H5.25C5.86884 7.58333 6.46233 7.3375 6.89992 6.89992C7.3375 6.46233 7.58333 5.86884 7.58333 5.25V2.33333C7.58333 1.71449 7.3375 1.121 6.89992 0.683418C6.46233 0.245833 5.86884 0 5.25 0V0ZM5.25 5.25H2.33333V2.33333H5.25V5.25Z"/>
<path d="M15.4582 20.4171H12.5416C11.9227 20.4171 11.3293 20.6629 10.8917 21.1005C10.4541 21.5381 10.2083 22.1315 10.2083 22.7504V25.667C10.2083 26.2859 10.4541 26.8794 10.8917 27.317C11.3293 27.7545 11.9227 28.0004 12.5416 28.0004H15.4582C16.0771 28.0004 16.6706 27.7545 17.1082 27.317C17.5457 26.8794 17.7916 26.2859 17.7916 25.667V22.7504C17.7916 22.1315 17.5457 21.5381 17.1082 21.1005C16.6706 20.6629 16.0771 20.4171 15.4582 20.4171ZM15.4582 25.667H12.5416V22.7504H15.4582V25.667Z"/>
<path d="M15.4582 10.208H12.5416C11.9227 10.208 11.3293 10.4538 10.8917 10.8914C10.4541 11.329 10.2083 11.9225 10.2083 12.5413V15.458C10.2083 16.0768 10.4541 16.6703 10.8917 17.1079C11.3293 17.5455 11.9227 17.7913 12.5416 17.7913H15.4582C16.0771 17.7913 16.6706 17.5455 17.1082 17.1079C17.5457 16.6703 17.7916 16.0768 17.7916 15.458V12.5413C17.7916 11.9225 17.5457 11.329 17.1082 10.8914C16.6706 10.4538 16.0771 10.208 15.4582 10.208ZM15.4582 15.458H12.5416V12.5413H15.4582V15.458Z"/>
<path d="M15.4582 0H12.5416C11.9227 0 11.3293 0.245833 10.8917 0.683418C10.4541 1.121 10.2083 1.71449 10.2083 2.33333V5.25C10.2083 5.86884 10.4541 6.46233 10.8917 6.89992C11.3293 7.3375 11.9227 7.58333 12.5416 7.58333H15.4582C16.0771 7.58333 16.6706 7.3375 17.1082 6.89992C17.5457 6.46233 17.7916 5.86884 17.7916 5.25V2.33333C17.7916 1.71449 17.5457 1.121 17.1082 0.683418C16.6706 0.245833 16.0771 0 15.4582 0V0ZM15.4582 5.25H12.5416V2.33333H15.4582V5.25Z" />
<path d="M25.6667 0H22.7501C22.1312 0 21.5377 0.245833 21.1002 0.683418C20.6626 1.121 20.4167 1.71449 20.4167 2.33333V5.25C20.4167 5.86884 20.6626 6.46233 21.1002 6.89992C21.5377 7.3375 22.1312 7.58333 22.7501 7.58333H25.6667C26.2856 7.58333 26.8791 7.3375 27.3166 6.89992C27.7542 6.46233 28.0001 5.86884 28.0001 5.25V2.33333C28.0001 1.71449 27.7542 1.121 27.3166 0.683418C26.8791 0.245833 26.2856 0 25.6667 0V0ZM25.6667 5.25H22.7501V2.33333H25.6667V5.25Z" />
</g>
<defs>
<clipPath id="clip0_350_1231">
<rect width="28" height="28" fill="white"/>
</clipPath>
</defs>
</svg>
