<svg width="37" height="37" viewBox="0 0 37 37" fill="none" xmlns="http://www.w3.org/2000/svg">
<path fill-rule="evenodd" clip-rule="evenodd" d="M29.789 18.7614C29.789 17.9459 29.7158 17.1618 29.5799 16.4091H18.749V20.8575H24.9381C24.6715 22.295 23.8613 23.513 22.6433 24.3284V27.2139H26.3599C28.5345 25.2118 29.789 22.2637 29.789 18.7614Z" fill="#4285F4"/>
<path fill-rule="evenodd" clip-rule="evenodd" d="M18.7485 29.9999C21.8535 29.9999 24.4567 28.9701 26.3594 27.2137L22.6428 24.3283C21.613 25.0183 20.2958 25.426 18.7485 25.426C15.7533 25.426 13.218 23.4031 12.3137 20.6849H8.47168V23.6644C10.364 27.4228 14.253 29.9999 18.7485 29.9999Z" fill="#34A853"/>
<path fill-rule="evenodd" clip-rule="evenodd" d="M12.3143 20.6851C12.0843 19.9951 11.9536 19.258 11.9536 18.5001C11.9536 17.7421 12.0843 17.0051 12.3143 16.3151V13.3355H8.47221C7.69334 14.888 7.24902 16.6444 7.24902 18.5001C7.24902 20.3558 7.69334 22.1121 8.47221 23.6646L12.3143 20.6851Z" fill="#FBBC05"/>
<path fill-rule="evenodd" clip-rule="evenodd" d="M18.7485 11.5739C20.4369 11.5739 21.9528 12.1541 23.1446 13.2937L26.443 9.99524C24.4515 8.13956 21.8483 7.00002 18.7485 7.00002C14.253 7.00002 10.364 9.57706 8.47168 13.3355L12.3137 16.315C13.218 13.5968 15.7533 11.5739 18.7485 11.5739Z" fill="#EA4335"/>
</svg>
