<svg width="28" height="28" viewBox="0 0 28 28" fill="currentColor" xmlns="http://www.w3.org/2000/svg">
<g clip-path="url(#clip0_350_1241)">
<path d="M26.9748 10.5804L18.1256 1.73007C17.0304 0.638059 15.5469 0.0248413 14.0003 0.0248413C12.4537 0.0248413 10.9701 0.638059 9.87493 1.73007L1.02576 10.5804C0.699588 10.9045 0.44099 11.2901 0.264954 11.7149C0.0889193 12.1396 -0.00105133 12.5951 0.000258233 13.0549V24.5081C0.000258233 25.4363 0.369007 26.3266 1.02538 26.9829C1.68176 27.6393 2.572 28.0081 3.50026 28.0081H24.5003C25.4285 28.0081 26.3188 27.6393 26.9751 26.9829C27.6315 26.3266 28.0003 25.4363 28.0003 24.5081V13.0549C28.0016 12.5951 27.9116 12.1396 27.7356 11.7149C27.5595 11.2901 27.3009 10.9045 26.9748 10.5804ZM17.5003 25.6747H10.5003V21.0851C10.5003 20.1568 10.869 19.2666 11.5254 18.6102C12.1818 17.9538 13.072 17.5851 14.0003 17.5851C14.9285 17.5851 15.8188 17.9538 16.4751 18.6102C17.1315 19.2666 17.5003 20.1568 17.5003 21.0851V25.6747ZM25.6669 24.5081C25.6669 24.8175 25.544 25.1142 25.3252 25.333C25.1064 25.5518 24.8097 25.6747 24.5003 25.6747H19.8336V21.0851C19.8336 19.538 19.219 18.0542 18.125 16.9603C17.0311 15.8663 15.5474 15.2517 14.0003 15.2517C12.4532 15.2517 10.9694 15.8663 9.87547 16.9603C8.78151 18.0542 8.16693 19.538 8.16693 21.0851V25.6747H3.50026C3.19084 25.6747 2.89409 25.5518 2.6753 25.333C2.45651 25.1142 2.33359 24.8175 2.33359 24.5081V13.0549C2.33467 12.7457 2.45748 12.4494 2.67543 12.2301L11.5246 3.38324C12.1822 2.72866 13.0724 2.36117 14.0003 2.36117C14.9282 2.36117 15.8183 2.72866 16.4759 3.38324L25.3251 12.2336C25.5422 12.452 25.6649 12.7469 25.6669 13.0549V24.5081Z" />
</g>
<defs>
<clipPath id="clip0_350_1241">
<rect width="28" height="28" fill="white"/>
</clipPath>
</defs>
</svg>
