<svg width="20" height="20" viewBox="0 0 20 20" fill="none" xmlns="http://www.w3.org/2000/svg">
<path d="M5.27347 3.875C5.27347 3.39175 5.66522 3 6.14847 3C6.63172 3 7.02347 3.39175 7.02347 3.875V4.98445L7.98428 4.42973C8.40279 4.1881 8.93793 4.33149 9.17956 4.75C9.42118 5.1685 9.27779 5.70365 8.85928 5.94527L7.89846 6.5L8.85928 7.05473C9.27779 7.29635 9.42118 7.8315 9.17955 8.25C8.93793 8.66851 8.40279 8.8119 7.98428 8.57027L7.02347 8.01555V9.125C7.02347 9.60825 6.63172 10 6.14847 10C5.66522 10 5.27347 9.60825 5.27347 9.125V8.01554L4.31265 8.57027C3.89414 8.81189 3.359 8.6685 3.11738 8.25C2.87575 7.83149 3.01914 7.29635 3.43765 7.05473L4.39846 6.5L3.43765 5.94527C3.01914 5.70365 2.87575 5.16851 3.11737 4.75C3.359 4.3315 3.89414 4.18811 4.31265 4.42973L5.27347 4.98446V3.875Z" fill="#53D4FF"/>
<path d="M13.2735 5.875C13.2735 5.39175 13.6652 5 14.1485 5C14.6317 5 15.0235 5.39175 15.0235 5.875V6.98445L15.9843 6.42973C16.4028 6.1881 16.9379 6.33149 17.1796 6.75C17.4212 7.1685 17.2778 7.70365 16.8593 7.94527L15.8985 8.5L16.8593 9.05473C17.2778 9.29635 17.4212 9.8315 17.1796 10.25C16.9379 10.6685 16.4028 10.8119 15.9843 10.5703L15.0235 10.0156V11.125C15.0235 11.6082 14.6317 12 14.1485 12C13.6652 12 13.2735 11.6082 13.2735 11.125V10.0155L12.3127 10.5703C11.8941 10.8119 11.359 10.6685 11.1174 10.25C10.8758 9.83149 11.0191 9.29635 11.4377 9.05473L12.3985 8.5L11.4376 7.94527C11.0191 7.70365 10.8757 7.16851 11.1174 6.75C11.359 6.3315 11.8941 6.18811 12.3126 6.42973L13.2735 6.98446V5.875Z" fill="#53D4FF"/>
<path d="M7.27347 11.375C7.27347 10.8918 7.66522 10.5 8.14847 10.5C8.63172 10.5 9.02347 10.8918 9.02347 11.375V12.4845L9.98428 11.9297C10.4028 11.6881 10.9379 11.8315 11.1796 12.25C11.4212 12.6685 11.2778 13.2036 10.8593 13.4453L9.89846 14L10.8593 14.5547C11.2778 14.7964 11.4212 15.3315 11.1796 15.75C10.9379 16.1685 10.4028 16.3119 9.98428 16.0703L9.02347 15.5156V16.625C9.02347 17.1082 8.63172 17.5 8.14847 17.5C7.66522 17.5 7.27347 17.1082 7.27347 16.625V15.5155L6.31265 16.0703C5.89414 16.3119 5.359 16.1685 5.11738 15.75C4.87575 15.3315 5.01914 14.7964 5.43765 14.5547L6.39846 14L5.43765 13.4453C5.01914 13.2036 4.87575 12.6685 5.11737 12.25C5.359 11.8315 5.89414 11.6881 6.31265 11.9297L7.27347 12.4845V11.375Z" fill="#53D4FF"/>
</svg>
