<svg width="29" height="28" viewBox="0 0 29 28" fill="none" xmlns="http://www.w3.org/2000/svg">
<g clip-path="url(#clip0_717_4009)">
<path d="M14.75 0C11.9811 0 9.27431 0.821086 6.97202 2.35943C4.66973 3.89777 2.87532 6.08427 1.81569 8.64243C0.756066 11.2006 0.478819 14.0155 1.01901 16.7313C1.55921 19.447 2.89258 21.9416 4.85051 23.8995C6.80845 25.8574 9.30301 27.1908 12.0187 27.731C14.7345 28.2712 17.5494 27.9939 20.1076 26.9343C22.6657 25.8747 24.8522 24.0803 26.3906 21.778C27.9289 19.4757 28.75 16.7689 28.75 14C28.746 10.2882 27.2697 6.72958 24.6451 4.10494C22.0204 1.4803 18.4618 0.0040146 14.75 0V0ZM14.75 25.6667C12.4426 25.6667 10.1869 24.9824 8.26835 23.7005C6.34978 22.4185 4.85443 20.5964 3.97141 18.4646C3.08839 16.3328 2.85735 13.9871 3.30751 11.7239C3.75767 9.46084 4.86881 7.38203 6.50043 5.75042C8.13204 4.11881 10.2108 3.00767 12.474 2.55751C14.7371 2.10734 17.0828 2.33838 19.2146 3.22141C21.3465 4.10443 23.1685 5.59977 24.4505 7.51835C25.7324 9.43692 26.4167 11.6926 26.4167 14C26.4133 17.0932 25.183 20.0586 22.9958 22.2458C20.8086 24.433 17.8432 25.6633 14.75 25.6667V25.6667Z" fill="#53D4FF"/>
<path d="M10.2735 7.875C10.2735 7.39175 10.6652 7 11.1485 7C11.6317 7 12.0235 7.39175 12.0235 7.875V8.98445L12.9843 8.42973C13.4028 8.1881 13.9379 8.33149 14.1796 8.75C14.4212 9.1685 14.2778 9.70365 13.8593 9.94527L12.8985 10.5L13.8593 11.0547C14.2778 11.2964 14.4212 11.8315 14.1796 12.25C13.9379 12.6685 13.4028 12.8119 12.9843 12.5703L12.0235 12.0156V13.125C12.0235 13.6082 11.6317 14 11.1485 14C10.6652 14 10.2735 13.6082 10.2735 13.125V12.0155L9.31265 12.5703C8.89414 12.8119 8.359 12.6685 8.11738 12.25C7.87575 11.8315 8.01914 11.2964 8.43765 11.0547L9.39846 10.5L8.43765 9.94527C8.01914 9.70365 7.87575 9.16851 8.11737 8.75C8.359 8.3315 8.89414 8.18811 9.31265 8.42973L10.2735 8.98446V7.875Z" fill="#53D4FF"/>
<path d="M18.2735 9.875C18.2735 9.39175 18.6652 9 19.1485 9C19.6317 9 20.0235 9.39175 20.0235 9.875V10.9845L20.9843 10.4297C21.4028 10.1881 21.9379 10.3315 22.1796 10.75C22.4212 11.1685 22.2778 11.7036 21.8593 11.9453L20.8985 12.5L21.8593 13.0547C22.2778 13.2964 22.4212 13.8315 22.1796 14.25C21.9379 14.6685 21.4028 14.8119 20.9843 14.5703L20.0235 14.0156V15.125C20.0235 15.6082 19.6317 16 19.1485 16C18.6652 16 18.2735 15.6082 18.2735 15.125V14.0155L17.3127 14.5703C16.8941 14.8119 16.359 14.6685 16.1174 14.25C15.8758 13.8315 16.0191 13.2964 16.4377 13.0547L17.3985 12.5L16.4376 11.9453C16.0191 11.7036 15.8757 11.1685 16.1174 10.75C16.359 10.3315 16.8941 10.1881 17.3126 10.4297L18.2735 10.9845V9.875Z" fill="#53D4FF"/>
<path d="M12.2735 15.375C12.2735 14.8918 12.6652 14.5 13.1485 14.5C13.6317 14.5 14.0235 14.8918 14.0235 15.375V16.4845L14.9843 15.9297C15.4028 15.6881 15.9379 15.8315 16.1796 16.25C16.4212 16.6685 16.2778 17.2036 15.8593 17.4453L14.8985 18L15.8593 18.5547C16.2778 18.7964 16.4212 19.3315 16.1796 19.75C15.9379 20.1685 15.4028 20.3119 14.9843 20.0703L14.0235 19.5156V20.625C14.0235 21.1082 13.6317 21.5 13.1485 21.5C12.6652 21.5 12.2735 21.1082 12.2735 20.625V19.5155L11.3126 20.0703C10.8941 20.3119 10.359 20.1685 10.1174 19.75C9.87575 19.3315 10.0191 18.7964 10.4376 18.5547L11.3985 18L10.4376 17.4453C10.0191 17.2036 9.87575 16.6685 10.1174 16.25C10.359 15.8315 10.8941 15.6881 11.3126 15.9297L12.2735 16.4845V15.375Z" fill="#53D4FF"/>
</g>
<defs>
<clipPath id="clip0_717_4009">
<rect width="28" height="28" fill="white" transform="translate(0.75)"/>
</clipPath>
</defs>
</svg>
