<svg width="197" height="190" viewBox="0 0 197 190" fill="none" xmlns="http://www.w3.org/2000/svg">
<g clip-path="url(#clip0_592_4183)">
<path d="M39.1999 72.2148C41.7725 66.2097 44.5859 61.2481 48.0893 56.6857C59.1234 42.3172 73.6449 33.48 91.52 30.6531C113.776 27.1289 133.255 33.1606 149.167 49.2646C160.33 60.5613 166.112 74.3869 167.358 90.1555C168.46 104.061 165.796 117.152 158.42 129.05C147.969 145.905 132.619 155.982 113.23 159.72C94.6115 163.308 77.1857 159.751 61.7443 148.737C45.5968 137.222 36.3918 121.512 34.9745 101.543C34.7552 98.4817 34.4717 95.4206 34.7552 92.3754C34.8996 90.8689 34.2952 90.4483 33.0169 90.0756C26.8767 88.2816 20.7739 86.3491 15.329 82.8621C3.60486 75.3451 -2.00048 61.9295 0.64708 48.3276C2.0912 40.9118 4.11833 39.7033 11.5689 41.3909C19.9342 43.2808 27.3741 46.6826 32.4285 53.992C35.6216 58.6076 36.8144 63.9951 38.3708 69.2389C38.5955 69.9948 38.7934 70.7508 39.1999 72.2148ZM102.265 39.1816C99.3396 39.171 96.446 39.3892 93.5471 39.7565C88.8617 40.3421 88.6157 40.6775 90.5679 44.9631C94.7719 54.1943 93.4775 60.4442 85.9841 67.2798C83.8126 69.2602 81.2132 70.5964 78.7956 72.2148C74.2814 75.2386 71.1097 79.0823 72.1473 84.8638C74.0514 95.4951 68.1037 104.21 58.8132 108.016C55.358 109.432 51.7691 110.417 48.116 111.147C46.5061 111.466 45.9872 111.988 46.6398 113.734C49.0253 120.138 52.2665 126.026 56.5133 131.403C57.8291 133.064 58.4442 132.814 59.439 131.243C61.7282 127.634 63.9639 124.003 66.6115 120.617C72.4629 113.138 82.2187 111.53 89.9314 117.045C96.2214 121.544 99.4947 128.033 101.656 135.199C103.009 139.681 103.672 144.308 104.613 148.881C104.811 149.85 104.603 151.244 106.491 150.994C115.674 149.786 124.318 147.071 132.25 142.226C133.993 141.161 134.694 140.166 133.389 138.196C130.431 133.73 130.132 128.848 131.64 123.812C132.656 120.415 133.811 117.061 134.753 113.649C135.769 109.949 135.405 109.262 132.201 106.999C129.5 105.094 126.596 103.422 124.521 100.755C119.37 94.1163 119.113 82.7024 123.975 74.9565C128.11 68.3658 133.384 62.6642 138.379 56.7443C140.636 54.0718 140.615 53.6672 137.989 51.5857C127.537 43.2808 115.605 39.2189 102.26 39.1869L102.265 39.1816ZM158.196 96.1818C158.383 83.7139 154.751 72.7898 148.306 62.7015C147.654 61.6846 147.06 60.3963 145.637 61.9881C140.535 67.711 135.229 73.3062 131.292 79.9128C126.987 87.1476 128.848 94.3505 135.806 98.9342C136.887 99.6475 137.903 100.446 138.946 101.213C143.129 104.306 144.739 108.33 143.68 113.484C142.722 118.153 141.139 122.635 139.834 127.197C139.224 129.338 139.631 131.105 141.23 132.718C142.476 133.974 143.337 133.777 144.375 132.505C153.147 121.805 158.474 109.832 158.19 96.1765L158.196 96.1818ZM44.2383 95.2875C44.2383 96.7355 44.265 98.1889 44.2329 99.6369C44.1901 101.782 45.2919 102.57 47.3083 102.198C50.2501 101.655 53.1704 100.973 55.9089 99.7381C62.1989 96.8952 64.3383 92.8493 63.4718 85.9871C62.6268 79.2899 64.2207 73.386 69.4569 68.7118C72.4201 66.066 75.672 63.8247 78.9561 61.6208C84.7058 57.7611 85.6097 53.8429 82.1331 47.8804C79.9456 44.1219 78.7689 43.8185 74.9232 45.8947C70.8422 48.0934 67.1517 50.7818 63.7072 53.8908C51.4054 65.0013 44.8159 78.7363 44.2383 95.2875ZM80.459 122.795C78.48 122.923 76.9022 123.279 75.5116 124.466C71.3557 128.017 68.8365 132.702 66.1836 137.318C65.1941 139.037 65.6327 140.022 67.248 141.055C74.6932 145.835 82.7375 149.046 91.4718 150.542C94.4849 151.06 95.7026 149.85 95.1249 146.911C95.018 146.357 94.9217 145.804 94.8093 145.25C93.7664 139.948 92.6913 134.64 89.9207 129.907C87.7385 126.17 84.9412 123.119 80.459 122.795ZM11.3871 50.654C9.73437 50.6008 8.89999 51.5804 8.8358 54.0665C8.45605 69.0259 18.2654 76.4365 30.4335 79.4443C31.4979 79.7052 31.7546 79.061 31.53 78.2039C29.9414 72.1562 29.1284 65.8424 26.0102 60.2952C22.8224 54.6202 17.5059 51.937 11.3871 50.6594V50.654Z" fill="#2DDABB"/>
<path d="M100.442 189.5C72.3667 188.994 48.6616 178.56 29.6366 157.989C17.5381 144.899 10.1998 129.369 7.46664 111.769C6.78737 107.399 6.30064 102.975 6.39692 98.5296C6.4611 95.4791 8.05499 93.6478 10.5795 93.552C13.4303 93.4402 15.2328 95.197 15.511 98.3645C15.5377 98.684 15.5323 99.0087 15.543 99.3335C15.8586 109.917 18.0569 120.08 22.2823 129.817C29.5457 146.554 41.5105 159.123 57.0483 168.418C72.7946 177.841 90.0866 181.046 108.176 179.593C130.741 177.783 149.98 168.557 165.283 151.878C175.097 141.177 182.104 128.795 184.939 114.405C189.346 92.0401 186.699 70.6284 174.541 51.0799C160.902 29.1519 140.92 16.1409 115.295 12.1694C93.8681 8.84747 73.9285 13.3247 55.556 24.7119C49.6779 28.3586 44.602 32.9849 39.8471 37.9731C38.8309 39.0379 37.7612 40.0547 36.2422 40.2942C34.0653 40.635 32.1398 40.076 30.9577 38.1382C29.7276 36.1205 30.0164 34.0975 31.5621 32.3247C36.7877 26.3144 42.8049 21.177 49.3997 16.7318C67.0288 4.85474 86.5458 -0.655233 107.769 0.702297C133.384 2.34198 155.217 12.5261 172.525 31.4463C186.436 46.6507 194.588 64.6765 196.519 85.2737C199.048 112.254 191.507 136.136 173.707 156.669C158.18 174.583 138.224 184.549 114.99 188.435C110.187 189.239 105.341 189.521 100.431 189.505L100.442 189.5Z" fill="#2DDABB"/>
</g>
<defs>
<clipPath id="clip0_592_4183">
<rect width="197" height="189" fill="white" transform="translate(0 0.5)"/>
</clipPath>
</defs>
</svg>
