<svg width="28" height="28" viewBox="0 0 28 28" fill="none" xmlns="http://www.w3.org/2000/svg">
<path d="M16.422 10.0712L11.8545 2.56375C11.557 2.05625 11.0233 1.75 10.437 1.75H4.67075C3.402 1.75 2.60575 3.115 3.227 4.2175C4.38168 6.26038 6.01138 7.99512 7.97825 9.275C8.64325 9.79125 9.46575 10.0712 10.3145 10.0712H16.422Z" fill="#0074BA"/>
<path d="M23.3257 1.75H17.5595C16.9732 1.75 16.4395 2.05625 16.142 2.56375L11.5745 10.0712H17.6907C18.5395 10.0712 19.3532 9.79125 20.027 9.275C21.9957 7.9975 23.6232 6.265 24.7782 4.2175C25.3907 3.115 24.5945 1.75 23.3257 1.75Z" fill="#00A6ED"/>
<path d="M13.9913 26.2497C18.8431 26.2497 22.7763 22.2186 22.7763 17.2459C22.7763 12.2733 18.8431 8.24219 13.9913 8.24219C9.13938 8.24219 5.20625 12.2733 5.20625 17.2459C5.20625 22.2186 9.13938 26.2497 13.9913 26.2497Z" fill="#FFB02E"/>
<path d="M14 25.1651C11.935 25.1651 9.9925 24.3426 8.54 22.8463C7.07829 21.3498 6.26422 19.3382 6.27375 17.2463C6.27375 15.1288 7.07875 13.1426 8.54 11.6463C9.249 10.9136 10.0981 10.331 11.0369 9.93305C11.9756 9.53513 12.9848 9.33008 14.0044 9.33008C15.024 9.33008 16.0331 9.53513 16.9719 9.93305C17.9106 10.331 18.7597 10.9136 19.4687 11.6463C22.4787 14.7351 22.4787 19.7576 19.4687 22.8463C17.9987 24.3426 16.0562 25.1651 14 25.1651ZM13.9912 10.4038C12.285 10.4038 10.57 11.0688 9.275 12.4076C8.0151 13.7021 7.31433 15.4399 7.32375 17.2463C7.32375 19.0751 8.015 20.7901 9.275 22.0851C9.88592 22.7191 10.6185 23.2234 11.4289 23.5677C12.2393 23.912 13.1108 24.0892 13.9912 24.0888C15.7762 24.0888 17.4475 23.3801 18.7075 22.0851C21.3062 19.4163 21.3062 15.0763 18.7075 12.4076C18.0972 11.7727 17.3647 11.2679 16.5542 10.9236C15.7437 10.5792 14.8719 10.4024 13.9912 10.4038Z" fill="#FCD53F"/>
<path d="M14.5677 21.5C14.3251 21.5 14.1257 21.4263 13.9697 21.279C13.8137 21.123 13.7357 20.9323 13.7357 20.707V14.155L13.9177 14.441L12.9687 15.143C12.8474 15.2383 12.6957 15.286 12.5137 15.286C12.3057 15.286 12.1237 15.208 11.9677 15.052C11.8117 14.896 11.7337 14.7097 11.7337 14.493C11.7337 14.2157 11.8681 13.9903 12.1367 13.817L14.0087 12.569C14.0954 12.5083 14.1907 12.465 14.2947 12.439C14.4074 12.413 14.5114 12.4 14.6067 12.4C14.8581 12.4 15.0574 12.478 15.2047 12.634C15.3521 12.7813 15.4257 12.9677 15.4257 13.193V20.707C15.4257 20.9323 15.3434 21.123 15.1787 21.279C15.0227 21.4263 14.8191 21.5 14.5677 21.5Z" fill="#6D4534"/>
</svg>
