<svg width="28" height="28" viewBox="0 0 28 28" fill="none" xmlns="http://www.w3.org/2000/svg">
<path d="M16.422 10.0712L11.8545 2.56375C11.557 2.05625 11.0233 1.75 10.437 1.75H4.67075C3.402 1.75 2.60575 3.115 3.227 4.2175C4.38168 6.26038 6.01138 7.99512 7.97825 9.275C8.64325 9.79125 9.46575 10.0712 10.3145 10.0712H16.422Z" fill="#0074BA"/>
<path d="M23.3257 1.75H17.5595C16.9732 1.75 16.4395 2.05625 16.142 2.56375L11.5745 10.0712H17.6907C18.5395 10.0712 19.3532 9.79125 20.027 9.275C21.9957 7.9975 23.6232 6.265 24.7782 4.2175C25.3907 3.115 24.5945 1.75 23.3257 1.75Z" fill="#00A6ED"/>
<path d="M13.9913 26.2497C18.8431 26.2497 22.7763 22.2186 22.7763 17.2459C22.7763 12.2733 18.8431 8.24219 13.9913 8.24219C9.13938 8.24219 5.20625 12.2733 5.20625 17.2459C5.20625 22.2186 9.13938 26.2497 13.9913 26.2497Z" fill="#D3883E"/>
<path d="M14 25.1651C11.935 25.1651 9.9925 24.3426 8.54 22.8463C7.07829 21.3498 6.26422 19.3382 6.27375 17.2463C6.27375 15.1288 7.07875 13.1426 8.54 11.6463C9.249 10.9136 10.0981 10.331 11.0369 9.93305C11.9756 9.53513 12.9848 9.33008 14.0044 9.33008C15.024 9.33008 16.0331 9.53513 16.9719 9.93305C17.9106 10.331 18.7597 10.9136 19.4687 11.6463C22.4787 14.7351 22.4787 19.7576 19.4687 22.8463C17.9987 24.3426 16.0562 25.1651 14 25.1651ZM13.9912 10.4038C12.285 10.4038 10.57 11.0688 9.275 12.4076C8.0151 13.7021 7.31433 15.4399 7.32375 17.2463C7.32375 19.0751 8.015 20.7901 9.275 22.0851C9.88592 22.7191 10.6185 23.2234 11.4289 23.5677C12.2393 23.912 13.1108 24.0892 13.9912 24.0888C15.7762 24.0888 17.4475 23.3801 18.7075 22.0851C21.3062 19.4163 21.3062 15.0763 18.7075 12.4076C18.0972 11.7727 17.3647 11.2679 16.5542 10.9236C15.7437 10.5792 14.8719 10.4024 13.9912 10.4038Z" fill="#F3AD61"/>
<path d="M12.4649 20.167C12.5429 20.167 12.6252 20.18 12.7119 20.206C12.8072 20.232 12.9112 20.284 13.0239 20.362C13.1712 20.4747 13.3445 20.5743 13.5439 20.661C13.7519 20.7477 13.9902 20.791 14.2589 20.791C14.5275 20.791 14.7789 20.726 15.0129 20.596C15.2555 20.4573 15.4549 20.2667 15.6109 20.024C15.7669 19.7727 15.8449 19.4737 15.8449 19.127C15.8449 18.7977 15.7755 18.5247 15.6369 18.308C15.5069 18.0913 15.3292 17.9267 15.1039 17.814C14.8872 17.7013 14.6532 17.645 14.4019 17.645C14.2112 17.645 14.0509 17.6623 13.9209 17.697C13.7995 17.7317 13.6782 17.7707 13.5569 17.814C13.4442 17.8487 13.3099 17.866 13.1539 17.866C12.9545 17.866 12.7985 17.7967 12.6859 17.658C12.5819 17.5193 12.5299 17.3547 12.5299 17.164C12.5299 17.0427 12.5515 16.9343 12.5949 16.839C12.6469 16.7437 12.7205 16.6397 12.8159 16.527L15.1039 14.096L15.4549 14.395H12.2569C12.0489 14.395 11.8755 14.3257 11.7369 14.187C11.5982 14.0483 11.5289 13.875 11.5289 13.667C11.5289 13.4677 11.5982 13.303 11.7369 13.173C11.8755 13.0343 12.0489 12.965 12.2569 12.965H16.2349C16.5035 12.965 16.7029 13.0387 16.8329 13.186C16.9715 13.3333 17.0409 13.5197 17.0409 13.745C17.0409 13.8577 17.0105 13.9703 16.9499 14.083C16.8892 14.187 16.8155 14.2823 16.7289 14.369L14.4279 16.839L14.0769 16.397C14.1722 16.3537 14.3022 16.3147 14.4669 16.28C14.6402 16.2453 14.7832 16.228 14.8959 16.228C15.4072 16.228 15.8492 16.3623 16.2219 16.631C16.6032 16.891 16.8935 17.2333 17.0929 17.658C17.3009 18.074 17.4049 18.5247 17.4049 19.01C17.4049 19.6513 17.2619 20.206 16.9759 20.674C16.6899 21.142 16.2869 21.5017 15.7669 21.753C15.2469 22.0043 14.6402 22.13 13.9469 22.13C13.6262 22.13 13.3099 22.091 12.9979 22.013C12.6859 21.935 12.4172 21.831 12.1919 21.701C12.0012 21.597 11.8712 21.4843 11.8019 21.363C11.7412 21.233 11.7109 21.1117 11.7109 20.999C11.7109 20.7997 11.7802 20.6133 11.9189 20.44C12.0662 20.258 12.2482 20.167 12.4649 20.167Z" fill="#402A32"/>
</svg>
