<svg width="28" height="28" viewBox="0 0 28 28" fill="none" xmlns="http://www.w3.org/2000/svg">
<path d="M16.422 10.0712L11.8545 2.56375C11.557 2.05625 11.0233 1.75 10.437 1.75H4.67075C3.402 1.75 2.60575 3.115 3.227 4.2175C4.38168 6.26038 6.01138 7.99512 7.97825 9.275C8.64325 9.79125 9.46575 10.0712 10.3145 10.0712H16.422Z" fill="#0074BA"/>
<path d="M23.3257 1.75H17.5595C16.9732 1.75 16.4395 2.05625 16.142 2.56375L11.5745 10.0712H17.6907C18.5395 10.0712 19.3532 9.79125 20.027 9.275C21.9957 7.9975 23.6232 6.265 24.7782 4.2175C25.3907 3.115 24.5945 1.75 23.3257 1.75Z" fill="#00A6ED"/>
<path d="M13.965 26.2516C18.8169 26.2516 22.75 22.2205 22.75 17.2479C22.75 12.2753 18.8169 8.24414 13.965 8.24414C9.11312 8.24414 5.17999 12.2753 5.17999 17.2479C5.17999 22.2205 9.11312 26.2516 13.965 26.2516Z" fill="#BEBEBE"/>
<path d="M13.965 25.1651C11.9 25.1651 9.9575 24.3426 8.505 22.8463C7.04329 21.3498 6.22922 19.3382 6.23875 17.2463C6.23875 15.1288 7.04375 13.1426 8.505 11.6463C9.214 10.9136 10.0631 10.331 11.0019 9.93305C11.9406 9.53513 12.9498 9.33008 13.9694 9.33008C14.989 9.33008 15.9981 9.53513 16.9369 9.93305C17.8756 10.331 18.7247 10.9136 19.4337 11.6463C22.4437 14.7351 22.4437 19.7576 19.4337 22.8463C17.9637 24.3426 16.0212 25.1651 13.965 25.1651ZM13.9562 10.4038C12.25 10.4038 10.535 11.0688 9.24 12.4076C7.98009 13.7021 7.27932 15.4399 7.28875 17.2463C7.28875 19.0751 7.98 20.7901 9.24 22.0851C9.85092 22.7191 10.5835 23.2234 11.3939 23.5677C12.2042 23.912 13.0758 24.0892 13.9562 24.0888C15.7412 24.0888 17.4125 23.3801 18.6725 22.0851C21.2712 19.4163 21.2712 15.0763 18.6725 12.4076C18.0622 11.7727 17.3297 11.2679 16.5192 10.9236C15.7087 10.5792 14.8369 10.4024 13.9562 10.4038Z" fill="#E6E6E6"/>
<path d="M16.2534 20.07C16.4614 20.07 16.6347 20.1393 16.7734 20.278C16.9121 20.4167 16.9814 20.59 16.9814 20.798C16.9814 20.9973 16.9121 21.1663 16.7734 21.305C16.6347 21.435 16.4614 21.5 16.2534 21.5H11.8334C11.6081 21.5 11.4304 21.4307 11.3004 21.292C11.1704 21.1533 11.1054 20.9757 11.1054 20.759C11.1054 20.5423 11.1834 20.3517 11.3394 20.187L14.1734 17.158C14.4941 16.8113 14.7454 16.456 14.9274 16.092C15.1181 15.728 15.2134 15.4117 15.2134 15.143C15.2134 14.7097 15.0877 14.363 14.8364 14.103C14.5851 13.8343 14.2514 13.7 13.8354 13.7C13.6707 13.7 13.5017 13.739 13.3284 13.817C13.1551 13.895 12.9861 14.0033 12.8214 14.142C12.6654 14.2807 12.5181 14.441 12.3794 14.623C12.2754 14.7617 12.1714 14.8483 12.0674 14.883C11.9634 14.9177 11.8681 14.935 11.7814 14.935C11.5907 14.935 11.4131 14.8657 11.2484 14.727C11.0924 14.5797 11.0144 14.4107 11.0144 14.22C11.0144 14.0727 11.0621 13.9297 11.1574 13.791C11.2614 13.6523 11.3871 13.5093 11.5344 13.362C11.7511 13.1453 11.9937 12.9547 12.2624 12.79C12.5311 12.6253 12.8084 12.4997 13.0944 12.413C13.3804 12.3177 13.6577 12.27 13.9264 12.27C14.5071 12.27 15.0097 12.387 15.4344 12.621C15.8677 12.8463 16.2014 13.1713 16.4354 13.596C16.6694 14.012 16.7864 14.506 16.7864 15.078C16.7864 15.5547 16.6434 16.0877 16.3574 16.677C16.0801 17.2577 15.7031 17.8037 15.2264 18.315L13.4714 20.187L13.3284 20.07H16.2534Z" fill="#636363"/>
</svg>
