<svg width="28" height="28" viewBox="0 0 28 28" fill="currentColor" xmlns="http://www.w3.org/2000/svg">
<g clip-path="url(#clip0_350_1246)">
<path d="M14 13.9999C15.3845 13.9999 16.7378 13.5894 17.889 12.8202C19.0401 12.0511 19.9373 10.9578 20.4672 9.67873C20.997 8.39964 21.1356 6.99218 20.8655 5.63431C20.5954 4.27644 19.9287 3.02916 18.9497 2.05019C17.9708 1.07123 16.7235 0.404542 15.3656 0.134445C14.0078 -0.135651 12.6003 0.00297197 11.3212 0.532785C10.0421 1.0626 8.94888 1.95981 8.17971 3.11095C7.41054 4.26209 7 5.61547 7 6.99994C7.00185 8.85589 7.73995 10.6353 9.0523 11.9476C10.3647 13.26 12.1441 13.9981 14 13.9999ZM14 2.33328C14.923 2.33328 15.8252 2.60697 16.5927 3.11975C17.3601 3.63253 17.9582 4.36136 18.3114 5.21409C18.6646 6.06681 18.7571 7.00512 18.577 7.91036C18.3969 8.81561 17.9525 9.64713 17.2998 10.2998C16.6472 10.9524 15.8157 11.3969 14.9104 11.5769C14.0052 11.757 13.0669 11.6646 12.2141 11.3114C11.3614 10.9582 10.6326 10.36 10.1198 9.5926C9.60703 8.82517 9.33333 7.92292 9.33333 6.99994C9.33333 5.76227 9.825 4.57528 10.7002 3.70011C11.5753 2.82494 12.7623 2.33328 14 2.33328Z" />
<path d="M14 16.334C11.2162 16.3371 8.54725 17.4444 6.57879 19.4128C4.61033 21.3813 3.50309 24.0502 3.5 26.834C3.5 27.1435 3.62292 27.4402 3.84171 27.659C4.0605 27.8778 4.35725 28.0007 4.66667 28.0007C4.97609 28.0007 5.27283 27.8778 5.49162 27.659C5.71042 27.4402 5.83333 27.1435 5.83333 26.834C5.83333 24.6681 6.69375 22.5909 8.22529 21.0593C9.75684 19.5278 11.8341 18.6674 14 18.6674C16.1659 18.6674 18.2432 19.5278 19.7747 21.0593C21.3063 22.5909 22.1667 24.6681 22.1667 26.834C22.1667 27.1435 22.2896 27.4402 22.5084 27.659C22.7272 27.8778 23.0239 28.0007 23.3333 28.0007C23.6428 28.0007 23.9395 27.8778 24.1583 27.659C24.3771 27.4402 24.5 27.1435 24.5 26.834C24.4969 24.0502 23.3897 21.3813 21.4212 19.4128C19.4527 17.4444 16.7838 16.3371 14 16.334Z" />
</g>
<defs>
<clipPath id="clip0_350_1246">
<rect width="28" height="28" fill="white"/>
</clipPath>
</defs>
</svg>
