<svg width="28" height="28" viewBox="0 0 28 28" fill="none" xmlns="http://www.w3.org/2000/svg">
<g clip-path="url(#clip0_351_1642)">
<path d="M14 0C11.2311 0 8.52431 0.821086 6.22202 2.35943C3.91973 3.89777 2.12532 6.08427 1.06569 8.64243C0.006066 11.2006 -0.271181 14.0155 0.269012 16.7313C0.809206 19.447 2.14258 21.9416 4.10051 23.8995C6.05845 25.8574 8.55301 27.1908 11.2687 27.731C13.9845 28.2712 16.7994 27.9939 19.3576 26.9343C21.9157 25.8747 24.1022 24.0803 25.6406 21.778C27.1789 19.4757 28 16.7689 28 14C27.996 10.2882 26.5197 6.72958 23.8951 4.10494C21.2704 1.4803 17.7118 0.0040146 14 0V0ZM14 25.6667C11.6926 25.6667 9.43693 24.9824 7.51835 23.7005C5.59978 22.4185 4.10443 20.5964 3.22141 18.4646C2.33839 16.3328 2.10735 13.9871 2.55751 11.7239C3.00767 9.46084 4.11881 7.38203 5.75043 5.75042C7.38204 4.11881 9.46084 3.00767 11.724 2.55751C13.9871 2.10734 16.3328 2.33838 18.4646 3.22141C20.5965 4.10443 22.4185 5.59977 23.7005 7.51835C24.9824 9.43692 25.6667 11.6926 25.6667 14C25.6633 17.0932 24.433 20.0586 22.2458 22.2458C20.0586 24.433 17.0932 25.6633 14 25.6667Z" fill="#B1B1BA"/>
</g>
<defs>
<clipPath id="clip0_351_1642">
<rect width="28" height="28" fill="white"/>
</clipPath>
</defs>
</svg>
