<svg width="28" height="28" viewBox="0 0 28 28" fill="currentColor" xmlns="http://www.w3.org/2000/svg">
<g clip-path="url(#clip0_350_1243)">
<path d="M22.1667 4.66667H21.574L19.026 1.36267C18.6976 0.940107 18.2774 0.597819 17.7971 0.36173C17.3168 0.12564 16.7892 0.00194022 16.254 0L11.746 0C11.2108 0.00194022 10.6832 0.12564 10.2029 0.36173C9.72262 0.597819 9.30238 0.940107 8.974 1.36267L6.426 4.66667H5.83333C4.28681 4.66852 2.80415 5.2837 1.71059 6.37726C0.617029 7.47082 0.0018525 8.95347 0 10.5L0 22.1667C0.0018525 23.7132 0.617029 25.1959 1.71059 26.2894C2.80415 27.383 4.28681 27.9981 5.83333 28H22.1667C23.7132 27.9981 25.1959 27.383 26.2894 26.2894C27.383 25.1959 27.9981 23.7132 28 22.1667V10.5C27.9981 8.95347 27.383 7.47082 26.2894 6.37726C25.1959 5.2837 23.7132 4.66852 22.1667 4.66667ZM10.822 2.78833C10.9313 2.64723 11.0713 2.53291 11.2314 2.45406C11.3915 2.37522 11.5675 2.33393 11.746 2.33333H16.254C16.4324 2.3341 16.6084 2.37547 16.7685 2.4543C16.9285 2.53313 17.0686 2.64736 17.178 2.78833L18.627 4.66667H9.373L10.822 2.78833ZM25.6667 22.1667C25.6667 23.0949 25.2979 23.9852 24.6415 24.6415C23.9852 25.2979 23.0949 25.6667 22.1667 25.6667H5.83333C4.90508 25.6667 4.01484 25.2979 3.35846 24.6415C2.70208 23.9852 2.33333 23.0949 2.33333 22.1667V10.5C2.33333 9.57174 2.70208 8.6815 3.35846 8.02513C4.01484 7.36875 4.90508 7 5.83333 7H22.1667C23.0949 7 23.9852 7.36875 24.6415 8.02513C25.2979 8.6815 25.6667 9.57174 25.6667 10.5V22.1667Z" />
<path d="M14 9.33325C12.6155 9.33325 11.2622 9.7438 10.111 10.513C8.95987 11.2821 8.06266 12.3754 7.53285 13.6545C7.00303 14.9336 6.86441 16.341 7.13451 17.6989C7.4046 19.0568 8.07129 20.304 9.05026 21.283C10.0292 22.262 11.2765 22.9287 12.6344 23.1988C13.9922 23.4688 15.3997 23.3302 16.6788 22.8004C17.9579 22.2706 19.0511 21.3734 19.8203 20.2222C20.5895 19.0711 21 17.7177 21 16.3333C20.9982 14.4773 20.2601 12.6979 18.9477 11.3856C17.6354 10.0732 15.856 9.33511 14 9.33325ZM14 20.9999C13.077 20.9999 12.1748 20.7262 11.4073 20.2134C10.6399 19.7007 10.0418 18.9718 9.68857 18.1191C9.33536 17.2664 9.24294 16.3281 9.42301 15.4228C9.60307 14.5176 10.0475 13.6861 10.7002 13.0334C11.3528 12.3808 12.1843 11.9363 13.0896 11.7563C13.9948 11.5762 14.9331 11.6686 15.7859 12.0218C16.6386 12.375 17.3674 12.9732 17.8802 13.7406C18.393 14.508 18.6667 15.4103 18.6667 16.3333C18.6667 17.5709 18.175 18.7579 17.2998 19.6331C16.4247 20.5083 15.2377 20.9999 14 20.9999Z" />
</g>
<defs>
<clipPath id="clip0_350_1243">
<rect width="28" height="28" fill="white"/>
</clipPath>
</defs>
</svg>
